<svg width="44" height="44" viewBox="0 0 44 44" fill="none" xmlns="http://www.w3.org/2000/svg">
<path d="M13.1526 42.3757C20.4166 42.3757 26.3053 36.487 26.3053 29.223C26.3053 21.9589 20.4166 16.0703 13.1526 16.0703C5.88865 16.0703 0 21.9589 0 29.223C0 36.487 5.88865 42.3757 13.1526 42.3757Z" fill="#04E061"/>
<path d="M35.9692 40.7158C40.3585 40.7158 43.9168 37.1575 43.9168 32.7681C43.9168 28.3788 40.3585 24.8206 35.9692 24.8206C31.5798 24.8206 28.0215 28.3788 28.0215 32.7681C28.0215 37.1575 31.5798 40.7158 35.9692 40.7158Z" fill="#FF4053"/>
<path d="M15.6681 14.3557C18.3844 14.3557 20.5864 12.1538 20.5864 9.43758C20.5864 6.72135 18.3844 4.51941 15.6681 4.51941C12.9519 4.51941 10.75 6.72135 10.75 9.43758C10.75 12.1538 12.9519 14.3557 15.6681 14.3557Z" fill="#965EEB"/>
<path d="M32.8816 23.1043C38.7875 23.1043 43.5752 18.3166 43.5752 12.4107C43.5752 6.50473 38.7875 1.71704 32.8816 1.71704C26.9756 1.71704 22.188 6.50473 22.188 12.4107C22.188 18.3166 26.9756 23.1043 32.8816 23.1043Z" fill="#00AAFF"/>
</svg>
