<svg width="44" height="44" viewBox="0 0 44 44" fill="none" xmlns="http://www.w3.org/2000/svg">
<g clip-path="url(#clip0_429_13023)">
<path d="M22 44C34.1506 44 44 34.1506 44 22C44 9.8494 34.1506 0 22 0C9.8494 0 0 9.8494 0 22C0 34.1506 9.8494 44 22 44Z" fill="#FF0002"/>
<path d="M32.703 18.755C32.0375 18.0686 31.0915 17.6935 29.9365 17.6935C28.501 17.6935 27.3988 18.2765 26.7641 19.3688V13.948H23.4355V28.8024H26.7641V23.5796C26.7641 22.363 27.0138 21.5831 27.3889 21.1255C27.7519 20.6679 28.2623 20.4908 28.8134 20.4908C29.3029 20.4908 29.6868 20.647 29.9574 20.9275C30.228 21.219 30.3842 21.6667 30.3842 22.2904V28.7914H33.7128V21.6348C33.7128 20.4182 33.3586 19.4293 32.7041 18.7528L32.703 18.755ZM17.8189 17.6935C16.3834 17.6935 15.2801 18.2765 14.6465 19.3688V13.948H11.3179V28.8024H14.6465V23.5796C14.6465 22.363 14.8951 21.5831 15.2702 21.1255C15.6332 20.6679 16.1436 20.4908 16.6958 20.4908C17.1842 20.4908 17.5692 20.647 17.8398 20.9275C18.1093 21.219 18.2655 21.6667 18.2655 22.2904V28.7914H21.5941V21.6348C21.5941 20.4182 21.241 19.4293 20.5755 18.7429C19.9199 18.0565 18.9728 17.6924 17.8189 17.6924L17.8189 17.6935Z" fill="white"/>
</g>
<defs>
<clipPath id="clip0_429_13023">
<rect width="44" height="44" fill="white"/>
</clipPath>
</defs>
</svg>
